<svg xmlns="http://www.w3.org/2000/svg" xmlns:xlink="http://www.w3.org/1999/xlink" version="1.1" x="0px" y="0px" viewBox="0 0 100 125" style="enable-background:new 0 0 100 100;" xml:space="preserve"><g><path d="M12,72h15l0.2,13.3c0,0.8,0.5,1.4,1.1,1.8c0.3,0.1,0.6,0.2,0.9,0.2c0.4,0,0.9-0.1,1.2-0.4L49.7,72H86c1.1,0,2-0.9,2-2V13   c0-1.1-0.9-2-2-2H12c-1.1,0-2,0.9-2,2v57C10,71.1,10.9,72,12,72z M14,15h70v53H49c-0.4,0-0.9,0.1-1.2,0.4L31.2,81.2L31,70   c0-1.1-0.9-2-2-2H14V15z"/><path d="M27.1,28.3c-0.1-0.1-0.2-0.1-0.3-0.2c-0.1-0.1-0.2-0.1-0.4-0.1c-0.3-0.1-0.5-0.1-0.8,0c-0.1,0-0.2,0.1-0.4,0.1   c-0.1,0-0.2,0.1-0.3,0.2c-0.1,0.1-0.2,0.1-0.3,0.2C24.2,29,24,29.5,24,30c0,0.1,0,0.3,0,0.4c0,0.1,0.1,0.2,0.1,0.4   c0,0.1,0.1,0.2,0.2,0.3s0.1,0.2,0.2,0.3C25,31.8,25.5,32,26,32c0.5,0,1-0.2,1.4-0.6c0.1-0.1,0.2-0.2,0.2-0.3   c0.1-0.1,0.1-0.2,0.2-0.3c0.1-0.1,0.1-0.2,0.1-0.4c0-0.1,0-0.3,0-0.4c0-0.5-0.2-1-0.6-1.4C27.3,28.5,27.2,28.4,27.1,28.3z"/><path d="M27.8,41.2c0-0.1-0.1-0.2-0.2-0.3c-0.1-0.1-0.1-0.2-0.2-0.3c-0.8-0.8-2.1-0.8-2.8,0c-0.1,0.1-0.2,0.2-0.2,0.3   c-0.1,0.1-0.1,0.2-0.2,0.3c-0.1,0.1-0.1,0.2-0.1,0.4c0,0.1,0,0.3,0,0.4c0,0.5,0.2,1,0.6,1.4c0.1,0.1,0.2,0.2,0.3,0.2   c0.1,0.1,0.2,0.1,0.3,0.2c0.1,0.1,0.2,0.1,0.4,0.1c0.1,0,0.3,0,0.4,0c0.1,0,0.3,0,0.4,0c0.1,0,0.3-0.1,0.4-0.1   c0.1,0,0.2-0.1,0.3-0.2c0.1-0.1,0.2-0.1,0.3-0.2C27.8,43,28,42.5,28,42c0-0.1,0-0.3,0-0.4C27.9,41.5,27.9,41.4,27.8,41.2z"/><path d="M27.8,53.2c0-0.1-0.1-0.2-0.2-0.3c-0.1-0.1-0.1-0.2-0.2-0.3c-0.1-0.1-0.2-0.2-0.3-0.2s-0.2-0.1-0.3-0.2   c-0.1-0.1-0.2-0.1-0.4-0.1c-0.6-0.1-1.3,0.1-1.8,0.5c-0.1,0.1-0.2,0.2-0.2,0.3c-0.1,0.1-0.1,0.2-0.2,0.3c-0.1,0.1-0.1,0.2-0.1,0.4   c0,0.1,0,0.3,0,0.4c0,0.5,0.2,1,0.6,1.4C25,55.8,25.5,56,26,56c0.1,0,0.3,0,0.4,0c0.1,0,0.2-0.1,0.4-0.1c0.1,0,0.2-0.1,0.3-0.2   c0.1-0.1,0.2-0.1,0.3-0.2C27.8,55,28,54.5,28,54c0-0.1,0-0.3,0-0.4C27.9,53.5,27.9,53.4,27.8,53.2z"/><path d="M34,32h38c1.1,0,2-0.9,2-2s-0.9-2-2-2H34c-1.1,0-2,0.9-2,2S32.9,32,34,32z"/><path d="M34,44h38c1.1,0,2-0.9,2-2s-0.9-2-2-2H34c-1.1,0-2,0.9-2,2S32.9,44,34,44z"/><path d="M34,56h38c1.1,0,2-0.9,2-2s-0.9-2-2-2H34c-1.1,0-2,0.9-2,2S32.9,56,34,56z"/></g></svg>