<svg xmlns="http://www.w3.org/2000/svg" xmlns:xlink="http://www.w3.org/1999/xlink" version="1.1" x="0px" y="0px" viewBox="0 0 100 125" style="enable-background:new 0 0 100 100;" xml:space="preserve"><g><path d="M64,63.8c1.4-1.4,3.7-1.4,5.2,0c1.4,1.4,1.4,3.7,0,5.2c-10.6,10.6-27.8,10.6-38.3,0c-1.4-1.4-1.4-3.7,0-5.2   c1.4-1.4,3.7-1.4,5.2,0C43.8,71.6,56.2,71.6,64,63.8z M32.3,41.4c0-2.1,0-8.7,0-10.7c0-2,1.7-3.6,3.6-3.6c2.1,0,3.6,1.7,3.6,3.6   v10.7c0,2-1.5,3.6-3.6,3.6C33.9,45.1,32.3,43.4,32.3,41.4z M60.4,41.4c0-2.1,0-8.7,0-10.7c0-2,1.7-3.6,3.7-3.6c2,0,3.6,1.7,3.6,3.6   v10.7c0,2-1.7,3.6-3.6,3.6C62,45.1,60.4,43.4,60.4,41.4z"/></g><g><path d="M50,91.8C27,91.8,8.2,73,8.2,50C8.2,27,27,8.2,50,8.2C73,8.2,91.8,27,91.8,50C91.8,73,73,91.8,50,91.8z M50,15.7   c-18.9,0-34.3,15.4-34.3,34.3c0,18.9,15.4,34.3,34.3,34.3c18.9,0,34.3-15.4,34.3-34.3C84.3,31.1,68.9,15.7,50,15.7z"/></g></svg>