<svg xmlns="http://www.w3.org/2000/svg" data-name="Layer 1" viewBox="0 0 100 125" x="0px" y="0px"><title>37</title><g data-name="Group"><path data-name="Compound Path" d="M87.2,14.4H77V8.1H71v6.4H53V8.1H47v6.4H29V8.1H23v6.4H12.8a3,3,0,0,0-3,3V88.9a3,3,0,0,0,3,3H87.2a3,3,0,0,0,3-3V17.4A3,3,0,0,0,87.2,14.4Zm-3,71.5H15.8V39.4H84.2Z"/><rect data-name="Path" x="26.4" y="48.2" width="18.7" height="6"/><rect data-name="Path" x="26.4" y="59.9" width="47.3" height="6"/><rect data-name="Path" x="26.4" y="71.5" width="47.3" height="6"/></g></svg>