<svg xmlns:dc="http://purl.org/dc/elements/1.1/" xmlns:cc="http://creativecommons.org/ns#" xmlns:rdf="http://www.w3.org/1999/02/22-rdf-syntax-ns#" xmlns:svg="http://www.w3.org/2000/svg" xmlns="http://www.w3.org/2000/svg" xmlns:sodipodi="http://sodipodi.sourceforge.net/DTD/sodipodi-0.dtd" xmlns:inkscape="http://www.inkscape.org/namespaces/inkscape" version="1.1" x="0px" y="0px" viewBox="0 0 100 125"><g transform="translate(0,-952.36218)"><path style="text-indent:0;text-transform:none;direction:ltr;block-progression:tb;baseline-shift:baseline;color:#000000;enable-background:accumulate;" d="m 44.767612,979.33598 a 4.0004,4.0004 0 0 0 -3.5937,3.125 l -1.875,7.9375 -6.2188,0 a 4.0004,4.0004 0 0 0 -0.4062,0 4.0051529,4.0051529 0 1 0 0.4062,8 l 4.3125,0 -1.875,8.00002 -4.4375,0 a 4.0004,4.0004 0 0 0 -0.4062,0 4.0051529,4.0051529 0 1 0 0.4062,8 l 2.5312,0 -1.4374,6.0625 a 4.0135087,4.0135087 0 1 0 7.8124,1.8437 l 1.875,-7.9062 9.75,0 -1.4374,6.0625 a 4.0135087,4.0135087 0 1 0 7.8124,1.8437 l 1.875,-7.9062 7.2188,0 a 4.0004,4.0004 0 1 0 0,-8 l -5.3125,0 1.875,-8.00002 5.4375,0 a 4.0004,4.0004 0 1 0 0,-8 l -3.5312,0 1.4374,-6.0938 a 4.0004,4.0004 0 0 0 -4.2187,-4.9687 4.0004,4.0004 0 0 0 -3.5937,3.125 l -1.875,7.9375 -9.75,0 1.4374,-6.0938 a 4.0004,4.0004 0 0 0 -4.2187,-4.9687 z m 0.875,19.0625 9.75,0 -1.875,8.00002 -9.75,0 1.875,-8.00002 z" fill="#000000" fill-opacity="1" stroke="none" marker="none" visibility="visible" display="inline" overflow="visible"/></g></svg>