<svg xmlns="http://www.w3.org/2000/svg" xmlns:xlink="http://www.w3.org/1999/xlink" xmlns:sketch="http://www.bohemiancoding.com/sketch/ns" viewBox="0 0 195 237.5" version="1.1" x="0px" y="0px"><title>Path 154</title><desc>Created with Sketch.</desc><g stroke="none" stroke-width="1" fill="none" fill-rule="evenodd" sketch:type="MSPage"><g sketch:type="MSArtboardGroup" transform="translate(-2.000000, -6.000000)" fill="#000000"><g sketch:type="MSLayerGroup" transform="translate(2.000000, 4.000000)"><g sketch:type="MSShapeGroup"><path d="M189.067734,192.000002 C192.378825,192.000001 195.033112,189.317197 194.996271,186.009782 L194.924206,179.540121 C194.887355,176.231815 192.170624,173.549903 188.853447,173.549903 L178.401801,173.549903 C175.085864,173.549903 172.397766,170.855934 172.397766,167.556686 L172.397766,71.6494188 C172.397766,68.3394563 175.084624,65.6562016 178.401801,65.6562015 L188.853447,65.6562015 C192.169384,65.6562014 194.857482,62.9605685 194.857482,59.6592301 L194.857482,59.9709302 C194.857482,57.2110651 192.909469,53.8507197 190.528053,52.4778294 L108.162211,4.9937798 C103.378204,2.23579137 95.582623,2.15855469 90.738503,4.82776363 L6.75156971,51.1062779 C3.85120785,52.7044365 1.5,56.6930862 1.5,60.003769 L1.5,59.0051567 C1.5,62.3209468 4.19492686,65.0089257 7.49986365,65.0089257 L20.026664,65.0089257 C23.3402972,65.0089257 26.0265277,67.6918704 26.0265277,71.0076231 L26.0265277,167.002586 C26.0265277,170.315575 23.3436367,173.001284 20.0217235,173.001284 L6.9616887,173.001284 C3.64532693,173.001284 0.95688453,175.683047 0.95688453,178.99957 L0.95688453,186.001763 C0.95688453,189.314525 3.64533833,192.000048 6.95214594,192.000047 L189.067734,192.000002 Z M41,69.0086057 C41,66.2424292 43.2433178,64 45.9900998,64 L54.0099002,64 C56.7658562,64 59,66.2391735 59,69.0086057 L59,159.991394 C59,162.757571 56.7566822,165 54.0099002,165 L45.9900998,165 C43.2341438,165 41,162.760827 41,159.991394 L41,69.0086057 Z M74,69.0086057 C74,66.2424292 76.2433178,64 78.9900998,64 L87.0099002,64 C89.7658562,64 92,66.2391735 92,69.0086057 L92,159.991394 C92,162.757571 89.7566822,165 87.0099002,165 L78.9900998,165 C76.2341438,165 74,162.760827 74,159.991394 L74,69.0086057 Z M107,69.0086057 C107,66.2424292 109.243318,64 111.9901,64 L120.0099,64 C122.765856,64 125,66.2391735 125,69.0086057 L125,159.991394 C125,162.757571 122.756682,165 120.0099,165 L111.9901,165 C109.234144,165 107,162.760827 107,159.991394 L107,69.0086057 Z M140,69.0086057 C140,66.2424292 142.243318,64 144.9901,64 L153.0099,64 C155.765856,64 158,66.2391735 158,69.0086057 L158,159.991394 C158,162.757571 155.756682,165 153.0099,165 L144.9901,165 C142.234144,165 140,162.760827 140,159.991394 L140,69.0086057 Z"/></g></g></g></g></svg>