<svg xmlns="http://www.w3.org/2000/svg" xmlns:xlink="http://www.w3.org/1999/xlink" version="1.1" x="0px" y="0px" viewBox="0 0 100 125" style="enable-background:new 0 0 100 100;" xml:space="preserve"><g><path d="M50,62.2c6.9,0,12.5-5.6,12.5-12.5v-20c0-6.9-5.6-12.5-12.5-12.5s-12.5,5.6-12.5,12.5v20C37.5,56.6,43.1,62.2,50,62.2z"/><path d="M69,52.2c0-1.4-1.1-2.5-2.5-2.5S64,50.9,64,52.2c0,7.4-6.3,13.5-14,13.5s-14-6.1-14-13.5c0-1.4-1.1-2.5-2.5-2.5   S31,50.9,31,52.2c0,9.4,7.2,17.1,16.5,18.3v7.2H43c-1.4,0-2.5,1.1-2.5,2.5s1.1,2.5,2.5,2.5h14c1.4,0,2.5-1.1,2.5-2.5   s-1.1-2.5-2.5-2.5h-4.5v-7.2C61.8,69.4,69,61.6,69,52.2z"/></g></svg>